<svg version="1" xmlns="http://www.w3.org/2000/svg" width="682.667" height="682.667" viewBox="0 0 512.000000 512.000000"><path d="M265.5 203.2c.1 18.1 0 18.6-2.8 18.5-2.2-.1-19.9 1.2-26.7 1.8-7.9.8-13.7 1.5-17.5 2.1-2.2.4-5.1.8-6.5.9-3.9.4-21.7 3.4-26.3 4.5-2.3.5-5.8 1.2-7.7 1.5-1.9.3-5.1 1-7 1.5-1.9.5-4.9 1.2-6.7 1.5-1.8.3-4.5 1-6 1.6-1.5.6-2.9 1-3.1 1-2.5-.9-46.3 13.1-67.7 21.7-22.3 8.9-53.8 24.5-56.6 28.1-3.6 4.5-.2 12.4 5.3 12.3 1.2 0 8.8-3.1 16.8-6.9 18.3-8.8 19.2-9.2 32.5-14.6 21.1-8.5 62.8-21.8 76-24.1 1.7-.3 4.5-1 6.3-1.5 1.7-.5 3.2-.8 3.2-.6 0 .3 1.2 0 2.6-.5 1.4-.6 4-1.2 5.7-1.5 1.8-.3 7.9-1.4 13.7-2.4 15.6-2.9 16.1-3 21.5-3.6 2.8-.3 5.9-.7 7-.9 1.1-.2 5.8-.7 10.5-1.1 4.7-.4 9.2-.9 10.1-1 .8-.2 6.3-.6 12.1-1 8.2-.5 10.6-.3 11 .7.2.7.3 8.8.3 18l-.2 16.6 4.6 1.2c2.5.7 7.1 1.5 10.1 1.8 10.8 1.2 37 .5 45.5-1.2 1.2-.2 4.7-.7 8-1.1 10-1.3 14.4-8 9.2-14.1-2.5-2.9-5-3.3-13.2-2-10 1.6-15.3 1.9-31 2l-16 .1v-23l12 .1c10.7.1 31.8 1.1 40 1.9 12 1.1 17.3 1.6 19.2 2 1.2.3 4.1.7 6.5 1 2.4.3 8.4 1.2 13.3 2.1 5 .8 10.3 1.7 11.9 2 1.6.3 3.2.6 3.5.8.3.2 2.4.7 4.6 1 11.9 1.9 57.5 15 57.5 16.5 0 .4-2.1 1.4-4.7 2.3-2.7.9-10.1 3.4-16.6 5.7-11 3.8-37.3 11-46.2 12.7-2.2.4-4.4.8-5 1-.5.1-2.6.5-4.5.9-1.9.3-5.3 1-7.5 1.5s-6.2 1.2-9 1.6c-2.7.3-5.9.8-7 1-4.2.9-21.3 3.3-28 3.9-3.8.4-7.8.9-8.7 1-10 2-64.1 2.8-78.8 1.2-9.9-1-24.1-3.4-31.5-5.4-3.3-.8-6.9-1.7-7.9-1.9-1.1-.2-4.1-1.1-6.8-2-6.1-2-9.9-1.2-12.1 2.5-3.6 6.1-1.7 9.2 8.8 14.5 12.5 6.2 31.3 11.3 48.5 13.1 1.4.1 5.9.6 10 1.1 14.2 1.6 61.1 1 80.5-1.1 1.7-.1 5.9-.6 9.5-.9 6.5-.6 9.1-.9 16.3-2 2-.3 5.2-.8 7-1.1 3.7-.5 19.7-3.5 21.2-3.9.6-.2 2.8-.6 5-1 32.4-6.2 67.3-19 87.8-32.3 9.2-5.9 11.7-8.7 11.7-13.2 0-6.7-3.3-9.2-21.5-16.4-23.1-9-58.7-19-75.7-21.2-1.5-.2-3.5-.6-4.5-.9-1-.3-3.6-.7-5.8-1-2.2-.2-5.1-.7-6.5-1-2.9-.6-12.6-1.7-28.5-3.1-12.8-1.1-24.7-1.6-41.3-1.7l-17.3-.2.1-2.5c.1-1.4.2-8.8.1-16.4L282 188h-16.6l.1 15.2z"/></svg>